<svg width="259" height="98" viewBox="0 0 259 98" fill="none" xmlns="http://www.w3.org/2000/svg">
<rect width="259" height="98" rx="8" fill="#EA3A3A"/>
<path d="M125.457 42H114.673C114.267 42 113.969 41.9147 113.777 41.744C113.606 41.552 113.521 41.2533 113.521 40.848V20.112C113.521 19.7067 113.606 19.4187 113.777 19.248C113.969 19.056 114.267 18.96 114.673 18.96H125.457C128.123 18.96 130.097 19.4933 131.377 20.56C132.678 21.6267 133.329 23.2693 133.329 25.488V35.472C133.329 37.6907 132.678 39.3333 131.377 40.4C130.097 41.4667 128.123 42 125.457 42ZM120.785 25.072V35.952H124.593C125.105 35.952 125.478 35.824 125.713 35.568C125.969 35.312 126.097 34.9173 126.097 34.384V26.608C126.097 26.0747 125.969 25.6907 125.713 25.456C125.478 25.2 125.105 25.072 124.593 25.072H120.785ZM143.348 42H138.548C138.142 42 137.844 41.9147 137.652 41.744C137.481 41.552 137.396 41.2533 137.396 40.848V20.112C137.396 19.7067 137.481 19.4187 137.652 19.248C137.844 19.056 138.142 18.96 138.548 18.96H141.876C142.281 18.96 142.622 19.024 142.9 19.152C143.198 19.28 143.486 19.504 143.764 19.824L149.972 26.928V20.112C149.972 19.7067 150.057 19.4187 150.228 19.248C150.42 19.056 150.718 18.96 151.124 18.96H155.924C156.329 18.96 156.617 19.056 156.788 19.248C156.98 19.4187 157.076 19.7067 157.076 20.112V40.848C157.076 41.2533 156.98 41.552 156.788 41.744C156.617 41.9147 156.329 42 155.924 42H151.124C150.718 42 150.42 41.9147 150.228 41.744C150.057 41.552 149.972 41.2533 149.972 40.848V36.912L144.5 30.288V40.848C144.5 41.2533 144.404 41.552 144.212 41.744C144.041 41.9147 143.753 42 143.348 42ZM162.129 42C161.724 42 161.425 41.9147 161.233 41.744C161.063 41.552 160.977 41.2533 160.977 40.848V37.04C160.977 36.6347 161.063 36.3467 161.233 36.176C161.425 35.984 161.724 35.888 162.129 35.888H165.297V25.136H162.129C161.724 25.136 161.425 25.0507 161.233 24.88C161.063 24.688 160.977 24.3893 160.977 23.984V20.112C160.977 19.7067 161.063 19.4187 161.233 19.248C161.425 19.056 161.724 18.96 162.129 18.96H175.761C176.167 18.96 176.455 19.056 176.625 19.248C176.817 19.4187 176.913 19.7067 176.913 20.112V23.984C176.913 24.3893 176.817 24.688 176.625 24.88C176.455 25.0507 176.167 25.136 175.761 25.136H172.657V35.888H175.761C176.167 35.888 176.455 35.984 176.625 36.176C176.817 36.3467 176.913 36.6347 176.913 37.04V40.848C176.913 41.2533 176.817 41.552 176.625 41.744C176.455 41.9147 176.167 42 175.761 42H162.129ZM186.976 42H182.016C181.611 42 181.312 41.9147 181.12 41.744C180.95 41.552 180.864 41.2533 180.864 40.848V20.112C180.864 19.7067 180.95 19.4187 181.12 19.248C181.312 19.056 181.611 18.96 182.016 18.96H191.808C194.71 18.96 196.694 19.536 197.76 20.688C198.827 21.84 199.36 23.344 199.36 25.2V29.296C199.36 31.152 198.827 32.656 197.76 33.808C196.694 34.96 194.71 35.536 191.808 35.536H188.128V40.848C188.128 41.2533 188.032 41.552 187.84 41.744C187.67 41.9147 187.382 42 186.976 42ZM188.064 24.944V29.776H190.944C191.563 29.776 191.968 29.616 192.16 29.296C192.352 28.976 192.448 28.6133 192.448 28.208V26.512C192.448 26.1067 192.352 25.744 192.16 25.424C191.968 25.104 191.563 24.944 190.944 24.944H188.064ZM209.909 24.72V28.816H212.309C212.863 28.816 213.237 28.6773 213.429 28.4C213.621 28.1013 213.717 27.7387 213.717 27.312V26.224C213.717 25.7973 213.621 25.4453 213.429 25.168C213.237 24.8693 212.863 24.72 212.309 24.72H209.909ZM208.757 42H203.829C203.423 42 203.125 41.9147 202.933 41.744C202.762 41.552 202.677 41.2533 202.677 40.848V20.112C202.677 19.7067 202.762 19.4187 202.933 19.248C203.125 19.056 203.423 18.96 203.829 18.96H214.485C216.874 18.96 218.517 19.4613 219.413 20.464C220.33 21.4453 220.789 22.7253 220.789 24.304V25.776C220.789 26.672 220.65 27.44 220.373 28.08C220.117 28.6987 219.658 29.1467 218.997 29.424C220.149 29.552 221.077 30.0213 221.781 30.832C222.506 31.6427 222.869 32.72 222.869 34.064V40.848C222.869 41.2533 222.773 41.552 222.581 41.744C222.41 41.9147 222.122 42 221.717 42H216.757C216.351 42 216.053 41.9147 215.861 41.744C215.69 41.552 215.605 41.2533 215.605 40.848V35.952C215.605 35.4827 215.509 35.1413 215.317 34.928C215.146 34.6933 214.837 34.576 214.389 34.576H209.909V40.848C209.909 41.2533 209.813 41.552 209.621 41.744C209.45 41.9147 209.162 42 208.757 42ZM245.822 35.952C245.822 36.9333 245.672 37.8293 245.374 38.64C245.096 39.4293 244.584 40.112 243.838 40.688C243.112 41.2427 242.099 41.68 240.798 42C239.518 42.32 237.886 42.48 235.902 42.48C233.918 42.48 232.275 42.32 230.974 42C229.672 41.68 228.648 41.2427 227.902 40.688C227.176 40.112 226.664 39.4293 226.366 38.64C226.088 37.8293 225.95 36.9333 225.95 35.952V25.04C225.95 24.0587 226.088 23.1733 226.366 22.384C226.664 21.5733 227.176 20.88 227.902 20.304C228.648 19.728 229.672 19.28 230.974 18.96C232.275 18.64 233.918 18.48 235.902 18.48C237.886 18.48 239.518 18.64 240.798 18.96C242.099 19.28 243.112 19.728 243.838 20.304C244.584 20.88 245.096 21.5733 245.374 22.384C245.672 23.1733 245.822 24.0587 245.822 25.04V35.952ZM233.214 34.8C233.214 35.2267 233.374 35.5893 233.694 35.888C234.014 36.1653 234.75 36.304 235.902 36.304C237.054 36.304 237.79 36.1653 238.11 35.888C238.43 35.5893 238.59 35.2267 238.59 34.8V26.192C238.59 25.7867 238.43 25.4453 238.11 25.168C237.79 24.8693 237.054 24.72 235.902 24.72C234.75 24.72 234.014 24.8693 233.694 25.168C233.374 25.4453 233.214 25.7867 233.214 26.192V34.8ZM119.253 80H114.485C114.08 80 113.781 79.9147 113.589 79.744C113.418 79.552 113.333 79.2533 113.333 78.848V58.112C113.333 57.7067 113.418 57.4187 113.589 57.248C113.781 57.056 114.08 56.96 114.485 56.96H119.637C119.978 56.96 120.256 57.0347 120.469 57.184C120.704 57.3333 120.917 57.5787 121.109 57.92L123.989 63.136C124.096 63.328 124.181 63.4667 124.245 63.552C124.33 63.6373 124.437 63.68 124.565 63.68H124.853C124.981 63.68 125.077 63.6373 125.141 63.552C125.226 63.4667 125.322 63.328 125.429 63.136L128.277 57.92C128.469 57.5787 128.672 57.3333 128.885 57.184C129.12 57.0347 129.408 56.96 129.749 56.96H134.933C135.338 56.96 135.626 57.056 135.797 57.248C135.989 57.4187 136.085 57.7067 136.085 58.112V78.848C136.085 79.2533 135.989 79.552 135.797 79.744C135.626 79.9147 135.338 80 134.933 80H130.005C129.6 80 129.301 79.9147 129.109 79.744C128.938 79.552 128.853 79.2533 128.853 78.848V67.584L126.965 71.072C126.773 71.4347 126.538 71.7013 126.261 71.872C126.005 72.0213 125.674 72.096 125.269 72.096H123.989C123.584 72.096 123.242 72.0213 122.965 71.872C122.709 71.7013 122.485 71.4347 122.293 71.072L120.405 67.584V78.848C120.405 79.2533 120.309 79.552 120.117 79.744C119.946 79.9147 119.658 80 119.253 80ZM148.841 63.68L147.337 68.544H152.361L150.857 63.68C150.772 63.488 150.676 63.3493 150.569 63.264C150.484 63.1787 150.377 63.136 150.249 63.136H149.449C149.321 63.136 149.204 63.1787 149.097 63.264C149.012 63.3493 148.927 63.488 148.841 63.68ZM147.017 78.848C147.017 79.2533 146.921 79.552 146.729 79.744C146.559 79.9147 146.271 80 145.865 80H141.161C140.756 80 140.457 79.9147 140.265 79.744C140.095 79.552 140.009 79.2533 140.009 78.848V70.4C140.009 69.76 140.105 69.024 140.297 68.192C140.511 67.36 140.831 66.3893 141.257 65.28L144.041 58.016C144.169 57.6533 144.361 57.3867 144.617 57.216C144.895 57.0453 145.247 56.96 145.673 56.96H154.281C154.687 56.96 155.017 57.0453 155.273 57.216C155.551 57.3867 155.753 57.6533 155.881 58.016L158.665 65.28C159.092 66.3893 159.401 67.36 159.593 68.192C159.807 69.024 159.913 69.76 159.913 70.4V78.848C159.913 79.2533 159.817 79.552 159.625 79.744C159.455 79.9147 159.167 80 158.761 80H153.929C153.503 80 153.183 79.9147 152.969 79.744C152.777 79.552 152.681 79.2533 152.681 78.848V74.368H147.017V78.848ZM174.552 80H164.44C164.035 80 163.736 79.9147 163.544 79.744C163.374 79.552 163.288 79.2533 163.288 78.848V75.104C163.288 74.6987 163.374 74.4107 163.544 74.24C163.736 74.048 164.035 73.952 164.44 73.952H173.048C173.326 73.952 173.528 73.8667 173.656 73.696C173.806 73.504 173.88 73.28 173.88 73.024C173.88 72.6613 173.806 72.3947 173.656 72.224C173.528 72.0533 173.326 71.9573 173.048 71.936L168.248 71.264C166.755 71.0507 165.55 70.56 164.632 69.792C163.736 69.024 163.288 67.744 163.288 65.952V62.592C163.288 60.7787 163.875 59.392 165.048 58.432C166.222 57.4507 167.843 56.96 169.912 56.96H178.872C179.278 56.96 179.566 57.056 179.736 57.248C179.928 57.4187 180.024 57.7067 180.024 58.112V61.92C180.024 62.3253 179.928 62.624 179.736 62.816C179.566 62.9867 179.278 63.072 178.872 63.072H171.416C171.139 63.072 170.926 63.168 170.776 63.36C170.627 63.5307 170.552 63.7547 170.552 64.032C170.552 64.3093 170.627 64.544 170.776 64.736C170.926 64.928 171.139 65.0347 171.416 65.056L176.184 65.696C177.678 65.9093 178.883 66.4 179.8 67.168C180.718 67.936 181.176 69.216 181.176 71.008V74.368C181.176 76.1813 180.579 77.5787 179.384 78.56C178.211 79.52 176.6 80 174.552 80ZM195.244 80H190.06C189.655 80 189.356 79.9147 189.164 79.744C188.994 79.552 188.908 79.2533 188.908 78.848V63.136H184.204C183.799 63.136 183.5 63.0507 183.308 62.88C183.138 62.688 183.052 62.3893 183.052 61.984V58.112C183.052 57.7067 183.138 57.4187 183.308 57.248C183.5 57.056 183.799 56.96 184.204 56.96H201.1C201.506 56.96 201.794 57.056 201.964 57.248C202.156 57.4187 202.252 57.7067 202.252 58.112V61.984C202.252 62.3893 202.156 62.688 201.964 62.88C201.794 63.0507 201.506 63.136 201.1 63.136H196.396V78.848C196.396 79.2533 196.3 79.552 196.108 79.744C195.938 79.9147 195.65 80 195.244 80ZM221.364 80H206.516C206.111 80 205.812 79.9147 205.62 79.744C205.45 79.552 205.364 79.2533 205.364 78.848V58.112C205.364 57.7067 205.45 57.4187 205.62 57.248C205.812 57.056 206.111 56.96 206.516 56.96H221.364C221.77 56.96 222.058 57.056 222.228 57.248C222.42 57.4187 222.516 57.7067 222.516 58.112V61.856C222.516 62.2613 222.42 62.56 222.228 62.752C222.058 62.9227 221.77 63.008 221.364 63.008H212.532V65.472H218.772C219.178 65.472 219.466 65.568 219.636 65.76C219.828 65.9307 219.924 66.2187 219.924 66.624V70.048C219.924 70.4533 219.828 70.752 219.636 70.944C219.466 71.1147 219.178 71.2 218.772 71.2H212.532V73.952H221.364C221.77 73.952 222.058 74.048 222.228 74.24C222.42 74.4107 222.516 74.6987 222.516 75.104V78.848C222.516 79.2533 222.42 79.552 222.228 79.744C222.058 79.9147 221.77 80 221.364 80ZM233.534 62.72V66.816H235.934C236.488 66.816 236.862 66.6773 237.054 66.4C237.246 66.1013 237.342 65.7387 237.342 65.312V64.224C237.342 63.7973 237.246 63.4453 237.054 63.168C236.862 62.8693 236.488 62.72 235.934 62.72H233.534ZM232.382 80H227.454C227.048 80 226.75 79.9147 226.558 79.744C226.387 79.552 226.302 79.2533 226.302 78.848V58.112C226.302 57.7067 226.387 57.4187 226.558 57.248C226.75 57.056 227.048 56.96 227.454 56.96H238.11C240.499 56.96 242.142 57.4613 243.038 58.464C243.955 59.4453 244.414 60.7253 244.414 62.304V63.776C244.414 64.672 244.275 65.44 243.998 66.08C243.742 66.6987 243.283 67.1467 242.622 67.424C243.774 67.552 244.702 68.0213 245.406 68.832C246.131 69.6427 246.494 70.72 246.494 72.064V78.848C246.494 79.2533 246.398 79.552 246.206 79.744C246.035 79.9147 245.747 80 245.342 80H240.382C239.976 80 239.678 79.9147 239.486 79.744C239.315 79.552 239.23 79.2533 239.23 78.848V73.952C239.23 73.4827 239.134 73.1413 238.942 72.928C238.771 72.6933 238.462 72.576 238.014 72.576H233.534V78.848C233.534 79.2533 233.438 79.552 233.246 79.744C233.075 79.9147 232.787 80 232.382 80Z" fill="white"/>
<rect x="9" y="9" width="80" height="80" rx="8" fill="white"/>
<path d="M26.398 44.36C26.2113 44.0667 26.038 43.6667 25.878 43.16C25.718 42.6533 25.638 42.12 25.638 41.56C25.638 40.52 25.8646 39.7733 26.318 39.32C26.798 38.8667 27.4113 38.64 28.158 38.64H45.598C45.7846 38.9333 45.958 39.3333 46.118 39.84C46.278 40.3467 46.358 40.88 46.358 41.44C46.358 42.48 46.118 43.2267 45.638 43.68C45.1846 44.1333 44.5846 44.36 43.838 44.36H39.398V62.84C39.1046 62.92 38.638 63 37.998 63.08C37.3846 63.16 36.7713 63.2 36.158 63.2C35.5446 63.2 34.998 63.1467 34.518 63.04C34.0646 62.96 33.678 62.8 33.358 62.56C33.038 62.32 32.798 61.9867 32.638 61.56C32.478 61.1333 32.398 60.5733 32.398 59.88V44.36H26.398ZM64.8505 62.2C64.4771 62.52 63.8905 62.8 63.0905 63.04C62.3171 63.28 61.4638 63.4 60.5305 63.4C59.4105 63.4 58.4505 63.24 57.6505 62.92C56.8505 62.5733 56.3038 62.1067 56.0105 61.52C55.7171 60.9067 55.3571 60.12 54.9305 59.16C54.5038 58.1733 54.0505 57.08 53.5705 55.88C53.1171 54.68 52.6371 53.4133 52.1305 52.08C51.6505 50.72 51.1838 49.3467 50.7305 47.96C50.2771 46.5733 49.8505 45.2133 49.4505 43.88C49.0505 42.5467 48.7038 41.2933 48.4105 40.12C48.7838 39.7467 49.3171 39.4133 50.0105 39.12C50.7305 38.8 51.4905 38.64 52.2905 38.64C53.2771 38.64 54.0771 38.8533 54.6905 39.28C55.3305 39.68 55.7971 40.44 56.0905 41.56C56.8105 44.1733 57.5305 46.68 58.2505 49.08C58.9971 51.4533 59.7705 53.9333 60.5705 56.52H60.8105C61.5305 54.0133 62.2638 51.28 63.0105 48.32C63.7838 45.36 64.5171 42.4133 65.2105 39.48C65.6905 39.24 66.1971 39.04 66.7305 38.88C67.2905 38.72 67.9171 38.64 68.6105 38.64C69.5971 38.64 70.4371 38.8667 71.1305 39.32C71.8238 39.7467 72.1705 40.4667 72.1705 41.48C72.1705 42.0667 72.0238 42.92 71.7305 44.04C71.4638 45.16 71.1038 46.4267 70.6505 47.84C70.2238 49.2267 69.7305 50.68 69.1705 52.2C68.6371 53.72 68.0905 55.16 67.5305 56.52C66.9971 57.8533 66.4905 59.04 66.0105 60.08C65.5305 61.0933 65.1438 61.8 64.8505 62.2Z" fill="#EA3A3A"/>
</svg>
