<svg xmlns="http://www.w3.org/2000/svg" version="1.1" xmlns:xlink="http://www.w3.org/1999/xlink" xmlns:svgjs="http://svgjs.dev/svgjs" width="100%" height="100%" viewBox="0 0 1000 600"><rect width="1000" height="600" x="0" y="0" fill="#d2302c"/><g><rect width="333.3333333333333" height="333.3333333333333" y="229.02276453003287" fill="#f7f7f9" transform="matrix(0.6044471728518219,0,0,0.6044471728518219,0,60.8266443198668)" x="206.800537109375"/><path d="M274.0132929770725 320.68943285708303L360.1355348325412 320.68943285708303L360.1355348325412 337.37279908039375L326.8289226245624 337.37279908039375L326.8289226245624 470.68942827027286L307.34996530437263 470.68942827027286L307.34996530437263 337.37279908039375L274.0132929770725 337.37279908039375L274.0132929770725 320.68943285708303ZM433.9631878856062 470.68942827027286L412.951164480031 470.68942827027286Q407.99124479201976 454.45696383678137 403.0012649846872 437.8938380907558Q398.01128517735464 421.3307123447303 393.1415458473072 403.1744002746768Q388.2718065172598 384.98802808530206 383.5223076644974 364.7575677820803Q378.7728088117351 344.49704735953725 373.9932498396515 320.68943285708303L373.9932498396515 320.68943285708303L394.3439506201584 320.68943285708303Q397.16960183635877 337.37279908039375 400.62651555830604 354.14634566166825Q404.0834292802533 370.9198922429428 407.99124479201976 387.1523566764343Q411.869000184465 403.3848211099258 415.8669960541953 418.625301605815Q419.8950520432469 433.89584222102553 423.7728074356921 447.5431363928868L423.7728074356921 447.5431363928868Q427.6806229474586 433.89584222102553 431.67861881718886 418.625301605815Q435.67661468691915 403.3848211099258 439.5844301986856 387.1523566764343Q443.46218559113083 370.9198922429428 446.94915943239937 354.14634566166825Q450.4060731543466 337.37279908039375 453.2016642512257 320.68943285708303L453.2016642512257 320.68943285708303L472.9211025259857 320.68943285708303Q468.1415435539021 344.49704735953725 463.3920447011398 364.7575677820803Q458.6124857290562 384.98802808530206 453.74274639900875 403.1744002746768Q448.87300706896133 421.3307123447303 443.91308738095 437.8938380907558Q438.9231075736175 454.45696383678137 433.9631878856062 470.68942827027286L433.9631878856062 470.68942827027286Z " fill="#d2302c" transform="matrix(0.6044471728518219,0,0,0.6044471728518219,0,60.8266443198668)"/><path d="M695.1045817080483 383.67035224628574L695.1045817080483 383.67035224628574Q695.1045817080483 399.5291818773637 691.7646849232797 410.5712896147619Q688.4020677522202 421.61339735216006 682.1085207496291 428.47495401202474Q675.8149737470379 435.3592310581804 666.8858619346975 438.4719239800395Q657.9794705086479 441.5618965156077 647.0055239301225 441.5618965156077L647.0055239301225 441.5618965156077Q635.8952550338515 441.5618965156077 623.4672037327059 438.6309666840761L623.4672037327059 438.6309666840761L623.4672037327059 328.6870174222044Q629.6698691901333 327.39195540362067 635.5544492394874 326.57402149714676Q641.4617496751325 325.7560875906728 646.846481226086 325.7560875906728L646.846481226086 325.7560875906728Q657.9794705086479 325.7560875906728 666.8858619346975 328.86878051253194Q675.8149737470379 331.9587530481001 682.1085207496291 338.84303009425577Q688.4020677522202 345.70458675412044 691.7646849232797 356.7466944915186Q695.1045817080483 367.7888022289168 695.1045817080483 383.67035224628574ZM679.4047947810068 383.67035224628574L679.4047947810068 383.67035224628574Q679.4047947810068 371.5603863532133 677.6098842640224 363.04024149410975Q675.8149737470379 354.5428170212972 672.0433896227414 349.1353650840528Q668.2718054984449 343.7506335330994 662.1373011998904 341.2968318136776Q656.0027969013358 338.84303009425577 647.5053724285233 338.84303009425577L647.5053724285233 338.84303009425577Q645.2106134131382 338.84303009425577 642.9158543977528 339.0020727982924Q640.6438157686587 339.161115502329 638.1900140492369 339.5019212966931L638.1900140492369 339.5019212966931L638.1900140492369 427.83878319587836Q640.6438157686587 428.1568686039515 642.9158543977528 428.31591130798813Q645.2106134131382 428.47495401202474 647.3463297244866 428.47495401202474L647.3463297244866 428.47495401202474Q656.0027969013358 428.47495401202474 662.0691400410176 426.0211522926029Q668.1127627944084 423.5673505731811 671.9525080775777 418.25078018110054Q675.8149737470379 412.9342097890199 677.6098842640224 404.43678531620736Q679.4047947810068 395.93936084339475 679.4047947810068 383.67035224628574ZM716.8707117747714 440.4258772010606L716.8707117747714 356.996618740719Q722.9143345281622 355.2017082237345 729.9576542783543 353.9748073640236Q736.9782536422557 352.7479065043127 742.8855540779008 352.7479065043127L742.8855540779008 352.7479065043127Q749.2472622393648 352.7479065043127 754.4956714725724 354.45193547613343Q759.7213603194893 356.1786848342451 763.402062898622 360.26835436661474Q767.0827654777547 364.35802389898447 769.1276002439396 371.3104621040129Q771.1724350101244 378.26290030904136 771.1724350101244 388.5779556851294L771.1724350101244 388.5779556851294L771.1724350101244 440.4258772010606L757.1085158960309 440.4258772010606L757.1085158960309 389.71397499967645Q757.1085158960309 376.9451179041667 753.8367802701351 371.06053785481254Q750.5650446442394 365.1759578054584 741.5677716730261 365.1759578054584L741.5677716730261 365.1759578054584Q736.819210938219 365.1759578054584 730.934630888865 366.81182561840626L730.934630888865 366.81182561840626L730.934630888865 440.4258772010606L716.8707117747714 440.4258772010606ZM809.7743713184361 354.5428170212972L809.7743713184361 440.4258772010606L795.7104522043426 440.4258772010606L795.7104522043426 354.5428170212972L809.7743713184361 354.5428170212972ZM802.7537719545348 339.3201582063656L802.7537719545348 339.3201582063656Q798.9821878302383 339.3201582063656 796.278461861616 336.79819532807096Q793.5974562792849 334.25351206348535 793.5974562792849 330.00479982707907L793.5974562792849 330.00479982707907Q793.5974562792849 325.7560875906728 796.278461861616 323.2114043260872Q798.9821878302383 320.68944144779255 802.7537719545348 320.68944144779255L802.7537719545348 320.68944144779255Q806.5026356925404 320.68944144779255 809.2063616611625 323.2114043260872Q811.9100876297847 325.7560875906728 811.9100876297847 330.00479982707907L811.9100876297847 330.00479982707907Q811.9100876297847 334.25351206348535 809.2063616611625 336.79819532807096Q806.5026356925404 339.3201582063656 802.7537719545348 339.3201582063656ZM849.2169619195126 365.9938917119323L849.2169619195126 427.49797740151416Q853.9428022680287 430.1108218249726 859.350254205273 430.1108218249726L859.350254205273 430.1108218249726Q863.4399237376427 430.1108218249726 866.5526166595018 428.47495401202474Q869.665309581361 426.83908619907686 871.8691870515825 423.09022246107133Q874.0730645218039 419.3186383367748 875.209083836351 413.1159728793475Q876.3678235371892 406.89058703562915 876.3678235371892 397.73427136037924L876.3678235371892 397.73427136037924Q876.3678235371892 380.05781082602584 871.8691870515825 372.44648141856004Q867.3705505659758 364.85787239738517 857.5553436882885 364.85787239738517L857.5553436882885 364.85787239738517Q855.7604331713042 364.85787239738517 853.6247168599555 365.0850762602946Q851.4890005486069 365.335000509495 849.2169619195126 365.9938917119323L849.2169619195126 365.9938917119323ZM849.2169619195126 439.7669859986232L849.2169619195126 470.6894317405962L835.1303224191281 470.6894317405962L835.1303224191281 356.8375760366824Q839.7198404498986 354.8609024293704 845.53625934038 353.63400156965946Q851.3299578445702 352.40710070994857 857.396300984252 352.40710070994857L857.396300984252 352.40710070994857Q866.3935739554653 352.40710070994857 872.846163662093 355.5197936318077Q879.2987533687208 358.63248655366687 883.3202617422176 364.4489054441482Q887.3190497294236 370.24260394833857 889.2048417915718 378.67186726227834Q891.09063385372 387.1011305762181 891.09063385372 397.89331406441585L891.09063385372 397.89331406441585Q891.09063385372 419.65944413113897 884.1381956486915 431.1105188217741Q877.1857574436631 442.5615935124092 861.4859705166216 442.5615935124092L861.4859705166216 442.5615935124092Q857.7143863923252 442.5615935124092 854.7607361745027 441.8118207648081Q851.829806342971 441.08476840349795 849.2169619195126 439.7669859986232L849.2169619195126 439.7669859986232ZM951.2769371384272 355.2017082237345L948.8231354190054 367.311674116807Q943.5974465720885 365.0169151014218 937.053975320297 365.0169151014218L937.053975320297 365.0169151014218Q931.0103525669062 365.0169151014218 925.7619433336986 367.1299110264795L925.7619433336986 367.1299110264795L925.7619433336986 440.4258772010606L911.698024219605 440.4258772010606L911.698024219605 358.31440114559365Q916.4465849544121 356.01964213020847 922.5810892529666 354.45193547613343Q928.7155935515211 352.9069492083493 936.0769987097865 352.9069492083493L936.0769987097865 352.9069492083493Q940.0076255381197 352.9069492083493 943.9155319801619 353.40679770675007Q947.8461588084949 353.88392581885984 951.2769371384272 355.2017082237345L951.2769371384272 355.2017082237345ZM1018.8473659676908 397.5752286563427L1018.8473659676908 397.5752286563427Q1018.8473659676908 407.7085209421031 1017.0524554507062 415.9787415520062Q1015.2575449337219 424.22624177561846 1011.5768423545892 430.1108218249726Q1007.8961397754564 436.0181222606177 1002.2387635890116 439.28985788651346Q996.6041077888578 442.5615935124092 988.9018968362283 442.5615935124092L988.9018968362283 442.5615935124092Q981.2224062698897 442.5615935124092 975.496868924572 439.28985788651346Q969.7713315792546 436.0181222606177 966.0906290001219 430.1108218249726Q962.4099264209891 424.22624177561846 960.6150159040046 415.9787415520062Q958.8201053870202 407.7085209421031 958.8201053870202 397.5752286563427L958.8201053870202 397.5752286563427Q958.8201053870202 387.5782586883279 960.6150159040046 379.2398769195519Q962.4099264209891 370.90149515077593 966.0906290001219 364.926033556258Q969.7713315792546 358.9505719617401 975.496868924572 355.6788363358443Q981.2224062698897 352.40710070994857 988.9018968362283 352.40710070994857L988.9018968362283 352.40710070994857Q996.6041077888578 352.40710070994857 1002.2387635890116 355.6788363358443Q1007.8961397754564 358.9505719617401 1011.5768423545892 364.926033556258Q1015.2575449337219 370.90149515077593 1017.0524554507062 379.2398769195519Q1018.8473659676908 387.5782586883279 1018.8473659676908 397.5752286563427ZM1004.12455565116 397.5752286563427L1004.12455565116 397.5752286563427Q1004.12455565116 390.3728662021138 1003.306621744686 384.3974046075959Q1002.4886878382121 378.42194301307796 1000.6937773212276 374.0823492315079Q998.8988668042432 369.7654758362288 995.9452165864205 367.3798352756798Q992.9915663685981 365.0169151014218 988.9018968362283 365.0169151014218L988.9018968362283 365.0169151014218Q984.653184599822 365.0169151014218 981.7904159271633 367.3798352756798Q978.9276472545046 369.7654758362288 977.0418551923563 374.0823492315079Q975.1787835164989 378.42194301307796 974.360849610025 384.3974046075959Q973.542915703551 390.3728662021138 973.542915703551 397.5752286563427L973.542915703551 397.5752286563427Q973.542915703551 404.7548707242805 974.360849610025 410.7303323187985Q975.1787835164989 416.7057939133164 977.0418551923563 420.9545061497227Q978.9276472545046 425.203218386129 981.7904159271633 427.588858946678Q984.653184599822 429.951779120936 988.9018968362283 429.951779120936L988.9018968362283 429.951779120936Q992.9915663685981 429.951779120936 995.9452165864205 427.588858946678Q998.8988668042432 425.203218386129 1000.6937773212276 420.9545061497227Q1002.4886878382121 416.7057939133164 1003.306621744686 410.7303323187985Q1004.12455565116 404.7548707242805 1004.12455565116 397.5752286563427ZM1092.3023748463086 424.7260902740192L1079.874323545163 424.7260902740192Q1076.602587919267 412.9342097890199 1073.1490892030438 402.1420263008221Q1069.7183108731115 391.3498428126244 1066.5374567923795 381.7845601841375Q1063.3338823253566 372.2192775556506 1060.402952493825 364.35802389898447Q1057.4493022760025 356.49677024231823 1054.9955005565807 350.61219019296414L1054.9955005565807 350.61219019296414Q1054.3366093541433 359.9502689585415 1053.9276424009063 371.1514193999763Q1053.5186754476692 382.3525698414111 1053.1097084944324 394.1217299401194Q1052.7007415411954 405.91361042511863 1052.473537678286 417.7736520689907Q1052.2236134290856 429.6336937128628 1052.064570725049 440.4258772010606L1052.064570725049 440.4258772010606L1037.9779312246644 440.4258772010606Q1038.4777797230652 425.7030668845297 1038.9776282214661 410.7303323187985Q1039.454756333576 395.7575977530673 1040.204529081177 381.28471168573674Q1040.9315814424872 366.81182561840626 1041.8403968941248 353.0659919123859Q1042.7264919594716 339.3201582063656 1043.8852316603097 327.0511496092565L1043.8852316603097 327.0511496092565L1058.426278886513 327.0511496092565Q1061.3799291043356 334.0944693594488 1065.151513228632 343.81879469197224Q1068.9003769666376 353.5658404107867 1072.740122249807 364.19898119494786Q1076.602587919267 374.83212197910905 1080.192408953236 385.4652627632702Q1083.782229987205 396.09840354743136 1086.4177947969545 404.9366338146081L1086.4177947969545 404.9366338146081Q1089.0306392204127 396.09840354743136 1092.4614175503452 385.4652627632702Q1095.8921958802775 374.83212197910905 1099.663780004574 364.19898119494786Q1103.4126437425796 353.5658404107867 1107.0933463217123 343.81879469197224Q1110.774048900845 334.0944693594488 1113.7276991186675 327.0511496092565L1113.7276991186675 327.0511496092565L1128.2914667311618 327.0511496092565Q1129.427486045709 339.3201582063656 1130.3363014973465 353.0659919123859Q1131.2223965626936 366.81182561840626 1131.9721693102945 381.28471168573674Q1132.6992216716048 395.7575977530673 1133.1990701700056 410.7303323187985Q1133.6761982821151 425.7030668845297 1134.176046780516 440.4258772010606L1134.176046780516 440.4258772010606L1120.1121276664223 440.4258772010606Q1119.7713218720583 429.6336937128628 1119.5441180091489 417.68277052382695Q1119.2941937599485 405.754567721082 1118.8852268067114 393.7127629868824Q1118.4762598534744 381.6936786389737 1117.9764113550737 370.3334854935024Q1117.4992832429639 358.9505719617401 1116.8403920405267 349.47617087841695L1116.8403920405267 349.47617087841695Q1115.3635669316154 353.5658404107867 1113.159689461394 359.70034470934115Q1110.9558119911724 365.83484900789574 1108.5701714306235 373.03721146212456Q1106.2072512563655 380.21685353006245 1103.66256799178 387.82818293752825Q1101.1406051134852 395.43951234499406 1098.9140072569728 402.48283209518627Q1096.7101297867514 409.50343145908755 1095.0061008149307 415.3198503495689Q1093.279351456819 421.1135488537593 1092.3023748463086 424.7260902740192L1092.3023748463086 424.7260902740192ZM1162.4856480990306 368.28865072731753L1159.531997881208 356.3377275382817Q1163.7807101176143 354.5428170212972 1168.5292708524212 353.47495886562285Q1173.2778315872283 352.40710070994857 1178.844326228509 352.40710070994857L1178.844326228509 352.40710070994857Q1190.2954009191444 352.40710070994857 1197.4750429870824 359.5413020053046Q1204.6774054413113 366.65278291436965 1204.6774054413113 381.6936786389737L1204.6774054413113 381.6936786389737L1204.6774054413113 438.6309666840761Q1198.792825391957 440.266834497024 1192.6583210934025 441.2438111075345Q1186.523816794848 442.2207877180451 1180.6392367454937 442.2207877180451L1180.6392367454937 442.2207877180451Q1174.7546566961396 442.2207877180451 1169.5971290080956 440.7439626091338Q1164.4396013200517 439.28985788651346 1160.599856036882 436.0181222606177Q1156.760110753713 432.74638663472194 1154.4653517383276 427.74790165071454Q1152.1705927229427 422.7494166667072 1152.1705927229427 415.5697745987693L1152.1705927229427 415.5697745987693Q1152.1705927229427 408.84454025665025 1154.2154274891275 403.86877565893377Q1156.2602622553122 398.8702906749264 1159.8500832892812 395.5303938901578Q1163.4626247095412 392.1677767190983 1168.3702281483847 390.44102736098665Q1173.2778315872283 388.73699838916593 1179.003368932546 388.73699838916593L1179.003368932546 388.73699838916593Q1184.3881004834993 388.73699838916593 1190.9315717352908 390.03206040774967L1190.9315717352908 390.03206040774967L1190.9315717352908 382.1935271373745Q1190.9315717352908 372.6964056677604 1187.2508691561582 368.94754192975483Q1183.5701665770252 365.1759578054584 1176.7086099171606 365.1759578054584L1176.7086099171606 365.1759578054584Q1172.937025792864 365.1759578054584 1169.5971290080956 365.9030101667685Q1166.234511837036 366.65278291436965 1162.4856480990306 368.28865072731753L1162.4856480990306 368.28865072731753ZM1166.234511837036 415.38801150844176L1166.234511837036 415.38801150844176Q1166.234511837036 422.9311797570347 1170.165138665369 426.52100079100364Q1174.0957654937024 430.1108218249726 1181.298127947931 430.1108218249726L1181.298127947931 430.1108218249726Q1185.705882888374 430.1108218249726 1190.9315717352908 428.9748025104255L1190.9315717352908 428.9748025104255L1190.9315717352908 401.66489818871236Q1186.0239682964473 400.3471157838377 1181.298127947931 400.3471157838377L1181.298127947931 400.3471157838377Q1178.185435026072 400.3471157838377 1175.390827512286 401.07416814514784Q1172.6189403847911 401.82394089274896 1170.5741056186062 403.5279698645696Q1168.5292708524212 405.2547192226813 1167.3932515378742 408.1174878953401Q1166.234511837036 410.9802565679988 1166.234511837036 415.38801150844176ZM1241.1663458245653 430.45162761933676L1241.1663458245653 430.45162761933676Q1247.3690112819925 430.45162761933676 1250.5725857490154 426.9299677442406Q1253.7534398297473 423.4083078691445 1253.7534398297473 417.68277052382695L1253.7534398297473 417.68277052382695Q1253.7534398297473 414.092949489858 1252.4583778111637 411.5482662252724Q1251.1405954062889 409.0263033469778 1249.0048790949404 407.04962973966576Q1246.8918831698827 405.0956765186447 1244.0972756560968 403.5279698645696Q1241.3253885286017 401.9829835967855 1238.5535014011066 400.1880730798011L1238.5535014011066 400.1880730798011Q1235.758893887321 398.5522052668532 1233.1460494638623 396.34832779663174Q1230.533205040404 394.1217299401194 1228.488370274219 391.25896126746056Q1226.4435355080343 388.3961925948018 1225.2166346483232 384.7154900156691Q1223.9897337886125 381.03478743653636 1223.9897337886125 376.1271839976928L1223.9897337886125 376.1271839976928Q1223.9897337886125 365.4940432135316 1230.6013661992768 358.9505719617401Q1237.235718996232 352.40710070994857 1248.5277509828306 352.40710070994857L1248.5277509828306 352.40710070994857Q1253.2763117176376 352.40710070994857 1257.525023954044 353.63400156965946Q1261.77373619045 354.8609024293704 1264.5456233179452 356.3377275382817L1264.5456233179452 356.3377275382817L1261.4556507823768 367.62975952488017Q1258.5020005645545 365.9938917119323 1255.548350346732 365.1759578054584Q1252.6174205152001 364.35802389898447 1249.1866421852678 364.35802389898447L1249.1866421852678 364.35802389898447Q1243.9382329520602 364.35802389898447 1240.825540030201 367.3798352756798Q1237.7355674946327 370.4016466523752 1237.7355674946327 376.1271839976928L1237.7355674946327 376.1271839976928Q1237.7355674946327 379.3989196235885 1238.87158680918 381.7845601841375Q1240.0076061237269 384.1474803583955 1241.8933981858754 386.03327242054377Q1243.7791902480235 387.919064482692 1246.1421104222816 389.5549322956399Q1248.5277509828306 391.1908001085878 1251.1405954062889 392.66762521749905L1251.1405954062889 392.66762521749905Q1254.2532883281483 394.4625357344835 1257.2750997048433 396.5755316595412Q1260.2969110815388 398.7112479708898 1262.6825516420877 401.5740166435486Q1265.045471816346 404.43678531620736 1266.5222969252573 408.27653059937666Q1267.9991220341685 412.116275882546 1267.9991220341685 417.52372781979034L1267.9991220341685 417.52372781979034Q1267.9991220341685 428.8157598063889 1261.3647692372133 435.67731646625356Q1254.7304164402578 442.5615935124092 1241.984279731039 442.5615935124092L1241.984279731039 442.5615935124092Q1235.4408084792476 442.5615935124092 1230.1923992460397 440.7439626091338Q1224.966710399123 438.9490520921493 1222.3538659756646 437.47222698323804L1222.3538659756646 437.47222698323804L1225.2847958071961 425.86210958856634Q1227.738597526618 427.179891993441 1231.9191486041514 428.8157598063889Q1236.0996996816848 430.45162761933676 1241.1663458245653 430.45162761933676ZM1298.0809134833767 329.02782321656855L1298.0809134833767 354.5428170212972L1319.6880008460632 354.5428170212972L1319.6880008460632 366.65278291436965L1298.0809134833767 366.65278291436965L1298.0809134833767 413.9339067858214Q1298.0809134833767 422.7494166667072 1301.2844879503996 426.27107654180327Q1304.4653420311315 429.7927364168994 1309.8727939683758 429.7927364168994L1309.8727939683758 429.7927364168994Q1312.644681095871 429.7927364168994 1315.1893643604565 428.9748025104255Q1317.711327238751 428.1568686039515 1319.5289581420266 427.0208492894044L1319.5289581420266 427.0208492894044L1322.3008452695215 438.29016088971196Q1315.5983313136935 442.2207877180451 1308.0778834513912 442.2207877180451L1308.0778834513912 442.2207877180451Q1295.967917558319 442.2207877180451 1289.992455963801 435.4273922170532Q1284.016994369283 428.6567171023523 1284.016994369283 412.9342097890199L1284.016994369283 412.9342097890199L1284.016994369283 331.48162493599034L1298.0809134833767 329.02782321656855ZM1387.0766665849992 401.66489818871236L1346.3390139653388 401.66489818871236Q1346.5207770556665 407.86756364613973 1347.497753666177 413.0250913341837Q1348.4747302766873 418.1826190222277 1350.678607746909 422.022364305397Q1352.8824852171304 425.86210958856634 1356.5631877962633 427.9978258999149Q1360.2438903753957 430.1108218249726 1365.9694277207134 430.1108218249726L1365.9694277207134 430.1108218249726Q1370.7179884555203 430.1108218249726 1374.7394968290173 428.7248782612251Q1378.7382848162233 427.3389346974776 1380.5331953332077 426.3619580869671L1380.5331953332077 426.3619580869671L1383.1460397566661 437.6539900735656Q1381.0330438316082 439.1080947961859 1376.0345588476011 440.83484415429757Q1371.0587942498846 442.5615935124092 1364.174517203729 442.5615935124092L1364.174517203729 442.5615935124092Q1355.1772442325155 442.5615935124092 1349.042739933961 439.28985788651346Q1342.9082356354065 436.0181222606177 1339.0684903522372 430.1108218249726Q1335.2287450690678 424.22624177561846 1333.5928772561201 416.04690271087907Q1331.9570094431722 407.86756364613973 1331.9570094431722 398.05235676845246L1331.9570094431722 398.05235676845246Q1331.9570094431722 374.3322734807083 1339.7955427135473 363.3810472884739Q1347.6567963702137 352.40710070994857 1360.58469616976 352.40710070994857L1360.58469616976 352.40710070994857Q1375.148463782254 352.40710070994857 1381.192086535645 363.3810472884739Q1387.2357092890356 374.3322734807083 1387.2357092890356 394.1217299401194L1387.2357092890356 394.1217299401194Q1387.2357092890356 395.93936084339475 1387.2357092890356 397.8024325192521Q1387.2357092890356 399.68822458140033 1387.0766665849992 401.66489818871236L1387.0766665849992 401.66489818871236ZM1360.58469616976 364.35802389898447L1360.58469616976 364.35802389898447Q1353.5413764195678 364.35802389898447 1350.3605223388358 371.4013436491767Q1347.156947871813 378.42194301307796 1346.5207770556665 390.2138234980772L1346.5207770556665 390.2138234980772L1372.512898972505 390.2138234980772Q1372.512898972505 378.26290030904136 1370.059097253083 371.3104621040129Q1367.6052955336613 364.35802389898447 1360.58469616976 364.35802389898447ZM1447.6037756640706 355.2017082237345L1445.1499739446488 367.311674116807Q1439.9242850977319 365.0169151014218 1433.3808138459403 365.0169151014218L1433.3808138459403 365.0169151014218Q1427.3144707062586 365.0169151014218 1422.088781859342 367.1299110264795L1422.088781859342 367.1299110264795L1422.088781859342 440.4258772010606L1408.0248627452484 440.4258772010606L1408.0248627452484 358.31440114559365Q1412.7734234800555 356.01964213020847 1418.9079277786097 354.45193547613343Q1425.0424320771644 352.9069492083493 1432.4038372354298 352.9069492083493L1432.4038372354298 352.9069492083493Q1436.311743677472 352.9069492083493 1440.242370505805 353.40679770675007Q1444.172997334138 353.88392581885984 1447.6037756640706 355.2017082237345L1447.6037756640706 355.2017082237345Z " fill="#f7f7f9" transform="matrix(0.6044471728518219,0,0,0.6044471728518219,0,60.8266443198668)"/></g></svg>