<svg xmlns="http://www.w3.org/2000/svg" aria-hidden="true" style="position:absolute;width:0;height:0;overflow:hidden">
    <defs>

        <!-- moon-icon -->
        <symbol id="moon" viewBox="0 0 22 21">
            <path stroke="#fff" stroke-linecap="round" stroke-linejoin="round"
                d="M9.41 11.67C6.334 8.74 5.718 4.44 7.359.92c-1.23.39-2.256 1.172-3.281 2.15A9.898 9.898 0 0 0 1.8 6.295a9.509 9.509 0 0 0-.8 3.812 9.51 9.51 0 0 0 .8 3.812 9.897 9.897 0 0 0 2.277 3.225c4.102 3.91 10.46 3.714 14.562-.195 1.026-.978 1.846-1.955 2.256-3.128-3.896 1.368-8.41.781-11.486-2.15l.002-.001Z" />
        </symbol>

        <!-- telegram -->
        <symbol id="telegram" viewBox="0 0 32 32">
            <path
                d="M16 32c8.837 0 16-7.163 16-16s-7.163-16-16-16c-8.837 0-16 7.163-16 16s7.163 16 16 16zM13.339 19.254l7.419-6.695c0.326-0.289-0.071-0.43-0.503-0.168l-9.156 5.777-3.955-1.234c-0.854-0.262-0.86-0.849 0.192-1.27l15.412-5.943c0.704-0.32 1.383 0.169 1.115 1.246l-2.625 12.368c-0.183 0.879-0.714 1.089-1.45 0.683l-3.998-2.954-1.922 1.869c-0.223 0.217-0.4 0.4-0.8 0.4l0.272-4.079z">
            </path>
        </symbol>

        <!-- watsApp -->
        <symbol id="whatsapp" viewBox="0 0 32 32">
            <path
                d="M23.296 19.176c-0.396-0.199-2.344-1.156-2.707-1.289-0.364-0.132-0.628-0.197-0.893 0.2-0.263 0.396-1.023 1.288-1.253 1.552-0.231 0.265-0.463 0.297-0.859 0.1-0.396-0.2-1.673-0.617-3.187-1.967-1.177-1.051-1.973-2.348-2.204-2.745-0.231-0.396-0.024-0.611 0.173-0.808 0.179-0.177 0.397-0.463 0.595-0.693 0.199-0.232 0.264-0.397 0.397-0.663 0.132-0.264 0.067-0.495-0.033-0.693s-0.892-2.149-1.221-2.943c-0.323-0.772-0.649-0.667-0.892-0.68-0.231-0.011-0.495-0.013-0.76-0.013-0.264 0-0.693 0.099-1.056 0.496-0.363 0.396-1.387 1.355-1.387 3.305 0 1.949 1.42 3.833 1.617 4.099 0.199 0.264 2.795 4.267 6.769 5.983 0.945 0.408 1.683 0.652 2.259 0.833 0.949 0.303 1.813 0.26 2.495 0.157 0.761-0.113 2.344-0.959 2.675-1.884s0.331-1.719 0.231-1.884c-0.099-0.165-0.361-0.264-0.759-0.463zM16.067 29.047h-0.005c-2.36 0-4.677-0.634-6.708-1.837l-0.481-0.285-4.988 1.309 1.331-4.864-0.313-0.499c-1.319-2.101-2.017-4.532-2.013-7.013 0.001-7.267 5.915-13.179 13.184-13.179 3.52 0 6.829 1.373 9.317 3.864 1.228 1.222 2.201 2.676 2.863 4.276s1 3.317 0.995 5.049c-0.004 7.267-5.916 13.179-13.18 13.179zM27.284 4.651c-1.469-1.479-3.217-2.651-5.143-3.45s-3.99-1.207-6.075-1.201c-8.74 0-15.853 7.113-15.857 15.856 0 2.795 0.729 5.523 2.117 7.927l-2.251 8.217 8.407-2.205c2.325 1.267 4.93 1.93 7.577 1.931h0.007c8.739 0 15.853-7.113 15.857-15.857 0.006-2.084-0.4-4.148-1.197-6.073s-1.967-3.674-3.443-5.144z">
            </path>
        </symbol>

        <!-- email -->
        <symbol id="email" viewBox="0 0 33 32">
            <path
                d="M0.064 24.032v-18.432c0-0.021 0.032-0.224 0.095-0.608l10.776 9.28-10.744 10.4c-0.085-0.299-0.127-0.512-0.127-0.64zM1.494 3.712c0.148-0.064 0.328-0.096 0.54-0.096h29.022c0.191 0 0.381 0.032 0.572 0.096l-10.808 9.312-1.43 1.152-2.829 2.336-2.829-2.336-1.43-1.152-10.808-9.312zM1.526 25.92l10.839-10.464 4.196 3.424 4.196-3.424 10.839 10.464c-0.17 0.064-0.35 0.096-0.54 0.096h-29.022c-0.17 0-0.339-0.032-0.509-0.096zM22.187 14.272l10.744-9.28c0.064 0.192 0.095 0.395 0.095 0.608v18.432c0 0.192-0.032 0.405-0.095 0.64l-10.744-10.4z">
            </path>
        </symbol>

    </defs>
</svg>
